<?xml version="1.0" encoding="UTF-8"?>
<svg id="Layer_2" xmlns="http://www.w3.org/2000/svg" viewBox="0 0 512 512">
  <defs>
    <style>
      .cls-1 {
        fill: #fff;
      }
    </style>
  </defs>
  <circle class="cls-1" cx="256.5" cy="256" r="256"/>
  <g>
    <path d="M-2862.36,616.24c260.69-217.26,618.99-192.62,933.75-150.64,175.85,23.46,351.44,49.81,529.4,44.89,172.61-4.78,343.52-32.16,513.61-60.01,361.47-59.2,719.41-90.34,1085.7-64.67,357.72,25.07,702.35,115.72,1056.56,163.19,165.29,22.15,331.98,33.35,498.78,28.73,182.35-5.06,364.45-27.91,545.83-46.26,367.1-37.14,734.08-74.66,1102.73-92.75,734.31-36.05,1470.36-11.54,2203.25,41.01,357.57,25.64,716.25,64.42,1075.18,47.46,166.25-7.85,330.32-30.04,492.5-67.4,175.61-40.45,349.74-92.47,529.7-110.22,86.24-8.51,172.41-7.91,258.31,3.56,7.74,1.03,7.67-11.16,0-12.18-351.23-46.89-685.48,104.52-1028.27,151.43-356.81,48.83-718.72,21.74-1076.09-5.86-742.01-57.3-1485.91-93.43-2230.23-69.14-373,12.17-744.41,43.14-1115.63,80.48-359.6,36.18-720.39,88.63-1082.28,58.11-351.8-29.67-692.84-126-1043.31-165.28-356.54-39.96-716.5-36.56-1071.57,15.59-183.5,26.95-365.75,63.09-550.46,81.3-180.53,17.81-357.92,9.95-537.57-13.16-306.21-39.4-632.85-101.09-927.41,27.19-62.09,27.04-119.11,62.71-171.08,106.02-6.03,5.02,2.63,13.6,8.61,8.61h0Z"/>
    <path d="M-3366,593.69c344.91-89.69,691-176.86,1042.93-234.69,374.59-61.55,751.55-82.62,1130.64-63.19,743.09,38.09,1474.09,199.21,2218.17,226.2,762.63,27.67,1522.37-61.08,2281.7-116.88,757.84-55.69,1518.24-64.61,2276.94-20.12,371.13,21.76,746.73,81.15,1118.88,58.86,358.73-21.49,707.64-134.31,1068.16-134.14,91.45.04,182.18,8.68,271.75,27.3,8.14,1.69,11.63-10.81,3.45-12.51-339.4-70.54-681.7,13.16-1016.96,67.4-188.89,30.56-377.18,47.44-568.6,41.74-187.94-5.59-375.08-25.68-562.44-40.23-764.56-59.35-1533.34-66.22-2298.85-20.85-764.36,45.3-1526.21,142.91-2292.89,141.64-756.28-1.25-1495.94-149.98-2247.02-214-372.7-31.77-746.18-35.34-1118.09,8.28-353.73,41.48-702.03,118.39-1047.14,204.94-88.14,22.11-176.13,44.85-264.08,67.71-8.07,2.1-4.65,14.61,3.45,12.51h0Z"/>
    <path d="M-3220.81,601.27c194.63-43.45,391.46-75.3,588.93-102.68,206.19-28.58,413.38-59.24,621.06-74.54,207.71-15.3,409.47.09,613.67,40.33,184.15,36.29,366.52,81.5,553.66,100.24,184.23,18.44,371.1,15.06,553.79-16.06,190.43-32.44,367.24-106.83,552.07-159.55,186.33-53.15,363.55-45.09,549.78,4.49,165.38,44.02,324.68,108.52,491.18,148.64,347.28,83.67,713.64,30.97,1060.43-28.56,379.01-65.06,760.29-147.17,1147.11-118.32,384.54,28.68,756.03,145.75,1140.29,179.38,193.02,16.89,387.54,19.08,580.74,3.66,169.08-13.49,346.91-30.91,502.86-101.41,84.83-38.35,165.64-85.11,253.83-115.84,89.12-31.06,181.64-52.87,274.67-68.34,202.01-33.6,408.12-33.99,611.95-20.18,407.18,27.59,813.21,92.2,1218.04,142.75,98.93,12.35,197.86,24.71,296.79,37.06,7.76.97,7.69-11.22,0-12.18-406.52-50.76-812.8-104.63-1219.76-151.72-383.27-44.35-780.9-68.34-1153.87,50.64-166.52,53.12-309.5,155.48-483.47,187.67-200.33,37.07-404.6,52-608.21,49.47-199.72-2.49-398.88-21.97-595.67-55.92-189.47-32.69-376.89-76.43-566.77-106.8-373.12-59.67-735.85-27.48-1105.95,36.3-375.1,64.65-754.55,147.45-1137.4,114.89-344.17-29.27-655.58-227.33-1002.98-228.02-178.98-.36-347.46,69.51-514.89,124.57-189.82,62.43-383.79,98.47-583.91,102.15-204.67,3.76-405.73-26.16-605.55-67.91-184.78-38.61-369.5-81.45-558.81-89.29-203.13-8.4-405.51,17.64-606.53,43.49-190.83,24.54-381.73,49.13-571.44,81.36-100.11,17-199.77,36.35-298.87,58.47-7.65,1.71-4.41,13.45,3.24,11.75h0Z"/>
  </g>
  <g>
    <path d="M399.46,260c.24,2.82.34,5.66.26,8.49-.03,1.26-.1,2.52-.2,3.78-.05.7-.12,1.39-.19,2.08-.03.28-.06.55-.09.83-.03.28-.07.55-.1.83.12-.86.14-1.05.08-.58-.82,5.44-2.11,10.77-3.96,15.95-.42,1.18-.87,2.35-1.34,3.51-.1.25-.2.53-.32.77.76-1.48.09-.23-.05.09-.28.64-.57,1.28-.87,1.91-1.19,2.55-2.5,5.04-3.91,7.47s-2.8,4.61-4.33,6.83c-.81,1.18-1.64,2.33-2.5,3.48-.17.23-.35.46-.52.69-.86,1.14.61-.76.03-.04-.49.62-.98,1.24-1.48,1.85-3.57,4.37-7.46,8.47-11.61,12.3-2.14,1.98-4.35,3.88-6.62,5.7-.51.41-1.03.82-1.54,1.22-.73.57,1.18-.89.02-.02-.23.17-.46.35-.7.53-1.17.88-2.35,1.73-3.54,2.57-4.7,3.29-9.61,6.28-14.7,8.93-2.51,1.31-5.07,2.54-7.66,3.68-.4.18-.8.35-1.2.52-.28.12-1.37.58-.23.1-.72.3-1.45.6-2.18.89-1.69.68-3.4,1.34-5.12,1.96-12.73,4.66-25.96,7.86-39.31,10.17-3.36.58-6.73,1.11-10.1,1.58-.78.11-1.56.23-2.34.33,1.49-.19-.25.03-.46.06-.35.05-.7.09-1.04.13-1.74.22-3.48.43-5.22.64-6.81.79-13.64,1.44-20.47,2.03-13.92,1.19-27.86,2.23-41.79,3.38-7.09.59-14.2,1.1-21.32,1.15-3.53.03-7.06-.06-10.59-.31-1.71-.12-3.41-.28-5.11-.48-.36-.04-.71-.09-1.07-.13,1.27.17.07,0-.25-.05-.98-.15-1.96-.31-2.93-.49-3.32-.61-6.61-1.41-9.82-2.46-1.27-.42-2.52-.88-3.77-1.37-1.01-.39.13.08.28.13-.4-.14-.78-.34-1.17-.51-.65-.29-1.29-.59-1.92-.91-2.55-1.26-5.01-2.69-7.36-4.29-.53-.36-1.05-.73-1.56-1.1-.27-.2-.62-.39-.85-.63.1.11,1.07.85.23.17-1.1-.89-2.17-1.79-3.21-2.75s-2.02-1.94-2.96-2.97c-.42-.46-.84-.93-1.25-1.4-.23-.26-.45-.53-.67-.8-.25-.31-.92-1.39-.08-.07-1.45-2.26-3.04-4.35-4.26-6.76-.28-.55-.53-1.1-.79-1.65-.6-1.24.38.98.05.15-.12-.32-.25-.63-.37-.95-.48-1.27-.89-2.57-1.23-3.88-.17-.66-.32-1.32-.45-1.99-.05-.27-.1-.54-.15-.81-.06-.32-.48-1.2-.08-.41s0-.06-.04-.42c-.03-.28-.05-.55-.07-.83-.08-.97-.11-1.95-.11-2.92,0-1.67.11-3.35.26-5.01.09-.93.19-1.85.31-2.78.05-.37.09-.74.14-1.11-.18,1.4.06-.44.08-.6.23-1.7.29-3.15-.61-4.69-.74-1.26-2.19-2.47-3.64-2.8-2.86-.65-7.03.88-7.49,4.25-1.04,7.6-1.85,14.99-.08,22.56,1.32,5.65,3.9,11.11,7.29,15.81,7.42,10.29,17.91,17.72,29.72,22.19,13.64,5.16,28.83,5.73,43.25,5.06,14.47-.67,28.92-2.2,43.35-3.33,28.45-2.22,57.27-4.73,84.68-13.13,12.69-3.89,25.14-8.98,36.5-15.89,10.3-6.27,19.89-13.9,28.16-22.68,16.42-17.45,28.09-39.94,28.73-64.23.08-2.83-.02-5.67-.26-8.49-.27-3.17-2.61-6.25-6.09-6.09-3.07.14-6.38,2.69-6.09,6.09h0Z"/>
    <path d="M382.18,264.7c-18.75,5.36-37.54,10.54-56.39,15.54-18.85,5-37.74,9.81-56.68,14.44-18.94,4.63-37.92,9.08-56.95,13.34-19.02,4.26-38.09,8.34-57.19,12.24-19.01,3.87-38.06,7.57-57.14,11.07-2.43.45-4.86.89-7.3,1.33-3.14.57-5.2,4.56-4.25,7.49,1.09,3.37,4.13,4.86,7.49,4.25,19.18-3.48,38.33-7.14,57.45-10.99,19.11-3.85,38.19-7.88,57.22-12.1,19.03-4.22,38.03-8.62,56.98-13.21,18.95-4.59,37.85-9.36,56.71-14.31s37.48-10.04,56.15-15.33c2.38-.67,4.76-1.35,7.13-2.03,3.06-.88,5.27-4.34,4.25-7.49s-4.21-5.19-7.49-4.25h0Z"/>
    <path d="M174.15,107.79c8.26,25.86,16.53,51.71,24.79,77.57,8.26,25.86,16.53,51.71,24.79,77.57,4.66,14.59,9.33,29.19,13.99,43.78.97,3.03,4.27,5.3,7.49,4.25,3.04-.98,5.29-4.24,4.25-7.49-8.26-25.86-16.53-51.71-24.79-77.57-8.26-25.86-16.53-51.71-24.79-77.57-4.66-14.59-9.33-29.19-13.99-43.78-.97-3.03-4.27-5.3-7.49-4.25-3.04.98-5.29,4.24-4.25,7.49h0Z"/>
    <path d="M209.62,282.68c3.02-1.87,6.13-3.59,9.32-5.17,1.59-.79,3.2-1.54,4.82-2.26.81-.36,1.61-.76,2.44-1.07-.16.06-1.24.52-.23.1.55-.23,1.1-.45,1.65-.68,6.62-2.69,13.39-4.99,20.16-7.26,12.96-4.36,26.01-8.7,38.11-15.16s22.34-14.55,29.93-25.52,11.18-24.48,11.45-37.78-2.85-27.15-8.18-39.65c-4.96-11.65-10.93-23.1-18.03-33.59s-16.22-20.89-27.15-28.43c-4.66-3.21-9.69-5.51-15.01-7.43s-10.78-3.47-16.34-4.39c-2.59-.43-5.24-.82-7.87-.82-3.76,0-7.5.43-11.21.95-6.77.96-13.39,2.75-19.86,4.96-6.95,2.38-13.72,5.23-20.47,8.1-1.48.63-2.95,1.26-4.43,1.89-.8.34-1.61.69-2.42,1.03-.4.17-.81.34-1.21.51-.3.13-2.14.93-.56.24-3.2,1.39-6.44,2.68-9.69,3.93s-6.21,2.3-9.36,3.31-5.3,4.27-4.25,7.49c.98,3.03,4.24,5.3,7.49,4.25,6.48-2.08,12.79-4.6,19.06-7.24,3.44-1.45,6.88-2.92,10.31-4.39.8-.34,1.61-.69,2.42-1.03.28-.12,1.67-.72.16-.07.4-.17.81-.34,1.21-.51,1.61-.67,3.22-1.34,4.84-1.99,6.2-2.49,12.5-4.78,18.97-6.49,3.22-.85,6.49-1.56,9.78-2.08.39-.06.87-.21,1.26-.19-1.28-.06-.81.1-.35.05.85-.1,1.69-.2,2.54-.27,1.7-.15,3.41-.25,5.12-.29,1.01-.02,2.02.01,3.03.09.58.05,1.16.11,1.73.18,1.19.14-1.6-.24-.4-.05.37.06.73.11,1.1.18,2.67.45,5.32,1.06,7.94,1.77s5.31,1.55,7.91,2.47c1.18.42,2.35.87,3.52,1.34.39.16,1.5.68-.25-.11.29.13.58.25.87.38.6.26,1.19.54,1.78.82,2.29,1.11,4.43,2.46,6.52,3.9.59.4,1.17.82,1.74,1.24.26.19.52.38.78.58l.31.23c.52.39.41.31-.31-.24-.06.18,3.19,2.63,3.58,2.98,2.34,2.06,4.56,4.25,6.68,6.54.98,1.06,1.93,2.13,2.86,3.23.42.5.84,1,1.26,1.51.47.57,1.5,1.45,1.72,2.16l-.47-.61c.16.21.32.42.48.63.2.26.4.53.59.79.43.58.86,1.17,1.29,1.76.93,1.29,1.83,2.6,2.71,3.92,1.77,2.65,3.46,5.37,5.07,8.12,3.08,5.27,5.9,10.7,8.55,16.2.65,1.36,1.3,2.72,1.94,4.09.3.65.6,1.3.9,1.95.17.36.33.73.49,1.09.15.34.83,2.09.18.38,1.11,2.88,2.24,5.74,3.15,8.69s1.68,5.96,2.3,8.99c.31,1.51.58,3.04.81,4.56.04.28.02.76.14,1l-.11-.82c.03.27.07.53.1.8.11.93.21,1.86.29,2.8.26,3.05.36,6.11.27,9.17-.04,1.45-.12,2.9-.25,4.35-.07.79-.16,1.57-.25,2.36-.15,1.41.23-1.45.01-.06-.06.39-.12.78-.18,1.17-.5,3.1-1.21,6.16-2.16,9.16-.43,1.37-.91,2.72-1.44,4.06-.14.34-.73,1.57.02,0-.11.24-.21.48-.31.72-.37.84-.76,1.67-1.18,2.49-1.36,2.7-2.94,5.3-4.71,7.75-.23.32-.46.63-.7.94-.82,1.11.87-1.07,0,0-.49.6-.98,1.21-1.49,1.8-1.01,1.18-2.07,2.32-3.17,3.42-1,1.01-2.04,1.99-3.11,2.93-.31.28-3.39,3.14-3.59,2.99l.62-.47c-.21.16-.41.32-.62.47-.31.24-.63.47-.94.7-.53.39-1.06.77-1.6,1.14-1.29.9-2.61,1.77-3.94,2.6-5.28,3.3-10.86,6.09-16.57,8.56-.33.14-.75.41-1.1.47l.72-.31c-.24.1-.49.2-.73.31-.61.25-1.23.5-1.84.75-1.47.59-2.95,1.16-4.43,1.71-3.3,1.23-6.62,2.39-9.96,3.52-13.43,4.58-27.05,8.82-39.78,15.17-3.05,1.52-6.03,3.18-8.92,4.97-2.71,1.68-4,5.52-2.18,8.33s5.44,3.98,8.33,2.18h0Z"/>
  </g>
</svg>